<?xml version="1.0" standalone="no"?><!-- Generator: Gravit.io --><svg xmlns="http://www.w3.org/2000/svg" xmlns:xlink="http://www.w3.org/1999/xlink" style="isolation:isolate" viewBox="0 0 1106.73 1106.73" width="1106.73" height="1106.73"><defs><filter id="0ct4H0ctfnQm4VXtDXNGbI0QZ4HfBFhi" x="-200%" y="-200%" width="400%" height="400%"><feOffset xmlns="http://www.w3.org/2000/svg" in="SourceAlpha" result="offOut" dx="0" dy="36"/><feGaussianBlur xmlns="http://www.w3.org/2000/svg" in="offOut" result="blurOut" stdDeviation="40"/><feComponentTransfer xmlns="http://www.w3.org/2000/svg" in="blurOut" result="opacOut"><feFuncA xmlns="http://www.w3.org/2000/svg" type="table" tableValues="0 0.5"/></feComponentTransfer><feBlend xmlns="http://www.w3.org/2000/svg" in="SourceGraphic" in2="opacOut" mode="normal" result="_out_uUsnbP2SGhcU15bHka5Xi3BnaQ8JlQej"/><feOffset xmlns="http://www.w3.org/2000/svg" in="_out_uUsnbP2SGhcU15bHka5Xi3BnaQ8JlQej" result="offOut" dx="0" dy="8.4"/><feGaussianBlur xmlns="http://www.w3.org/2000/svg" in="offOut" result="blurOut" stdDeviation="18"/><feComponentTransfer xmlns="http://www.w3.org/2000/svg" in="blurOut" result="opacOut"><feFuncA xmlns="http://www.w3.org/2000/svg" type="table" tableValues="0 0.5"/></feComponentTransfer><feBlend xmlns="http://www.w3.org/2000/svg" in="_out_uUsnbP2SGhcU15bHka5Xi3BnaQ8JlQej" in2="opacOut" mode="normal"/></filter></defs><g filter="url(#0ct4H0ctfnQm4VXtDXNGbI0QZ4HfBFhi)"><path d=" M 553.365 990.73 C 760.791 990.73 876.102 990.73 951.416 915.416 C 1026.73 840.102 1026.73 724.791 1026.73 517.365 C 1026.73 309.939 1026.73 194.628 951.416 119.314 C 876.102 44 760.791 44 553.365 44 C 345.939 44 230.628 44 155.314 119.314 C 80 194.628 80 309.939 80 517.365 C 80 724.791 80 840.102 155.314 915.416 C 230.628 990.73 345.939 990.73 553.365 990.73 Z " fill="rgb(255,75,75)"/><linearGradient id="_lgradient_0" x1="61.28472222222228%" y1="-19.79166666666666%" x2="61.28472222222226%" y2="99.65277777777776%"><stop offset="0%" stop-opacity="0.1" style="stop-color:rgb(255,255,255)"/><stop offset="100%" stop-opacity="0.1" style="stop-color:rgb(0,0,0)"/></linearGradient><path d=" M 553.365 990.73 C 760.791 990.73 876.102 990.73 951.416 915.416 C 1026.73 840.102 1026.73 724.791 1026.73 517.365 C 1026.73 309.939 1026.73 194.628 951.416 119.314 C 876.102 44 760.791 44 553.365 44 C 345.939 44 230.628 44 155.314 119.314 C 80 194.628 80 309.939 80 517.365 C 80 724.791 80 840.102 155.314 915.416 C 230.628 990.73 345.939 990.73 553.365 990.73 Z " fill="url(#_lgradient_0)"/></g></svg>