<svg height='300px' width='300px'  fill="#000000" xmlns="http://www.w3.org/2000/svg" data-name="Layer 1" viewBox="0 0 100 100" x="0px" y="0px"><title>17</title><g data-name="Group"><path data-name="Path" d="M87.7,28.2l-9.5-10a4,4,0,1,0-5.8,5.5L75.5,27H65.2a10,10,0,0,0-7.6,3.5L28.7,64.3a2,2,0,0,1-1.5.7h-16v8h16a10,10,0,0,0,7.6-3.5L63.7,35.7a2,2,0,0,1,1.5-.7H75.5l-3.1,3.2a4,4,0,0,0,5.8,5.5l9.5-10A4,4,0,0,0,87.7,28.2Z"></path><path data-name="Path" d="M11.2,35h16a2,2,0,0,1,1.5.7l9.6,11.5L44.4,42,34.8,30.6A10,10,0,0,0,27.2,27h-16Z"></path><path data-name="Path" d="M87.7,66.3l-9.5-10a4,4,0,0,0-5.8,5.5L75.5,65H65.7A3,3,0,0,1,63.4,64L54.2,52.8,48,58l9.3,11.1a11,11,0,0,0,8.5,4h9.7l-3.1,3.2a4,4,0,0,0,5.8,5.5l9.5-10A4,4,0,0,0,87.7,66.3Z"></path></g></svg>